
<svg width="85" height="32" viewBox="0 0 64 24" fill="none" xmlns="http://www.w3.org/2000/svg">
<g clip-path="url(#clip0_21_198)">
<path d="M60.9056 6.14677C62.6168 6.14677 64 4.77454 64 3.07692C64 1.37931 62.6168 0 60.9056 0C59.1943 0 57.804 1.37224 57.804 3.06985C57.804 4.76746 59.1943 6.1397 60.9056 6.1397V6.14677Z" fill="#1C67D8"/>
<path d="M33.4902 0C32.164 0 31.0874 1.06808 31.0874 2.38373V7.16534C29.8325 6.50752 28.4064 6.13263 26.8877 6.13263C21.9252 6.13263 17.8824 10.1362 17.8824 15.0663C17.8824 19.9965 21.918 24 26.8877 24C31.8574 24 35.8931 19.9965 35.8931 15.0663V15.0522V2.38373C35.8931 1.06808 34.8164 0 33.4902 0ZM26.8949 19.2325C24.5847 19.2325 22.6952 17.3652 22.6952 15.0663C22.6952 12.7675 24.5776 10.9001 26.8949 10.9001C29.2121 10.9001 31.0945 12.7675 31.0945 15.0663C31.0945 17.3652 29.2121 19.2325 26.8949 19.2325Z" fill="#1C67D8"/>
<path d="M53.1337 0C51.8075 0 50.7309 1.06808 50.7309 2.38373V7.16534C49.476 6.50752 48.0499 6.13263 46.5312 6.13263C41.5687 6.13263 37.5259 10.1362 37.5259 15.0663C37.5259 19.9965 41.5615 24 46.5312 24C51.5009 24 55.5366 19.9965 55.5366 15.0663C55.5366 15.0663 55.5366 15.0592 55.5366 15.0522C55.5366 15.0522 55.5366 15.0522 55.5366 15.0451V2.38373C55.5366 1.06808 54.4599 0 53.1337 0ZM46.5312 19.2325C44.2211 19.2325 42.3316 17.3652 42.3316 15.0663C42.3316 12.7675 44.2139 10.9001 46.5312 10.9001C48.8485 10.9001 50.7309 12.7675 50.7309 15.0663C50.7309 17.3652 48.8485 19.2325 46.5312 19.2325Z" fill="#1C67D8"/>
<path d="M60.8984 7.78793C59.5722 7.78793 58.4955 8.85601 58.4955 10.1717V21.6093C58.4955 22.925 59.5722 23.9931 60.8984 23.9931C62.2246 23.9931 63.3012 22.925 63.3012 21.6093V10.1717C63.3012 8.85601 62.2246 7.78793 60.8984 7.78793Z" fill="#1C67D8"/>
<path d="M8.12121 2.05847C3.64349 2.05847 0 5.67297 0 10.1151V21.6093C0 22.925 1.07665 23.993 2.40285 23.993C3.72905 23.993 4.8057 22.925 4.8057 21.6093V17.436H11.4296V21.6093C11.4296 22.925 12.5062 23.993 13.8324 23.993C15.1586 23.993 16.2353 22.925 16.2353 21.6093V10.1151C16.2353 5.67297 12.5918 2.05847 8.11408 2.05847H8.12121ZM11.4367 12.6686H4.8057V10.1151C4.8057 8.30427 6.2959 6.82593 8.12121 6.82593C9.94652 6.82593 11.4367 8.30427 11.4367 10.1151V12.6686Z" fill="#1C67D8"/>
</g>
<defs>
<clipPath id="clip0_21_198">
<rect width="85" height="32" fill="white"/>
</clipPath>
</defs>
</svg>
